<svg width="24" height="24" viewBox="0 0 24 24" fill="none" xmlns="http://www.w3.org/2000/svg">
<path d="M15.0013 19.88C15.0413 20.18 14.9413 20.5 14.7113 20.71C14.3213 21.1 13.6913 21.1 13.3013 20.71L9.29132 16.7C9.06132 16.47 8.96132 16.16 9.00132 15.87V10.75L4.21132 4.62C3.87132 4.19 3.95132 3.56 4.38132 3.22C4.57132 3.08 4.78132 3 5.00132 3H19.0013C19.2213 3 19.4313 3.08 19.6213 3.22C20.0513 3.56 20.1313 4.19 19.7913 4.62L15.0013 10.75V19.88ZM7.04132 5L11.0013 10.06V15.58L13.0013 17.58V10.05L16.9613 5H7.04132Z" fill="#0E3A66"/>
</svg>
